Coordinates
version=1
nRows=10
nColumns=22
inDegrees=yes

Units are S.I. units (second, meters, Newtons, ...)
If the header above contains a line with 'inDegrees', this indicates whether rotational values are in degrees (yes) or radians (no).

endheader
time	pelvis_tilt	pelvis_list	pelvis_rotation	pelvis_tx	pelvis_ty	pelvis_tz	hip_flexion_r	hip_adduction_r	hip_rotation_r	knee_angle_r	ankle_angle_r	subtalar_angle_r	hip_flexion_l	hip_adduction_l	hip_rotation_l	knee_angle_l	ankle_angle_l	subtalar_angle_l	lumbar_extension	lumbar_bending	lumbar_rotation
      3.02000000	      3.07855840	     -4.74524739	      3.80762096	     -0.71074254	      1.07939986	     -0.31557247	      2.71046989	      8.59204326	     -3.33863565	    -13.99759450	      9.43009918	     -4.35697656	     15.47500902	     -6.36033817	      2.63936928	    -61.96872583	      1.48232434	      2.51260917	     -8.11432140	      2.44962833	     -3.21788153
      3.03000000	      3.11670886	     -4.53386332	      3.58021222	     -0.70224106	      1.07998588	     -0.31489888	      1.95993873	      8.44057876	     -3.09439893	    -13.66187666	      9.68341184	     -4.30388793	     16.22873847	     -6.11869947	      2.52695181	    -61.36920466	      2.27900830	      1.98369927	     -8.17124448	      2.16458706	     -2.85766745
      3.04000000	      3.12565086	     -4.31949187	      3.35767563	     -0.69380534	      1.08042464	     -0.31432618	      1.27415833	      8.27278639	     -2.85421405	    -13.37933934	      9.95998544	     -4.26720022	     16.95754263	     -5.86068598	      2.42301929	    -60.57006728	      3.03212160	      1.63904565	     -8.20356175	      1.88496021	     -2.49885167
      3.05000000	      3.11924802	     -4.10668808	      3.14216894	     -0.68539331	      1.08073126	     -0.31382150	      0.62682047	      8.09716194	     -2.63502307	    -13.12906397	     10.24557679	     -4.24301726	     17.64641799	     -5.61513980	      2.29067466	    -59.58160689	      3.73611070	      1.40136905	     -8.22288062	      1.61265653	     -2.17730626
      3.06000000	      3.11447149	     -3.89695028	      2.93271701	     -0.67699403	      1.08094057	     -0.31338822	     -0.01158728	      7.91955436	     -2.39109393	    -12.89337309	     10.53615033	     -4.23090412	     18.27237162	     -5.37981863	      2.14026477	    -58.40841158	      4.35811445	      1.24034531	     -8.24796687	      1.34978663	     -1.87942277
      3.07000000	      3.10186783	     -3.69825154	      2.72908691	     -0.66859339	      1.08102042	     -0.31302339	     -0.61361239	      7.74567333	     -2.16528250	    -12.70630620	     10.84165698	     -4.23434388	     18.84913787	     -5.17640481	      1.94602302	    -57.06857466	      4.94625428	      1.18268605	     -8.26280639	      1.10476832	     -1.59567458
      3.08000000	      3.08780313	     -3.51459350	      2.52920766	     -0.66019878	      1.08098475	     -0.31271397	     -1.19037813	      7.58170085	     -1.94809865	    -12.55691668	     11.15353288	     -4.25245594	     19.37091543	     -5.01223733	      1.70436709	    -55.57589045	      5.49546493	      1.20294284	     -8.27787598	      0.88058556	     -1.33215834
      3.09000000	      3.04785968	     -3.35051396	      2.32987579	     -0.65181523	      1.08078870	     -0.31245880	     -1.70151145	      7.42983977	     -1.75755343	    -12.47301267	     11.48992419	     -4.27535920	     19.86753478	     -4.89370443	      1.40542623	    -53.94908528	      6.01942812	      1.25827973	     -8.26407064	      0.68041329	     -1.07498023
      3.10000000	      3.04233550	     -3.19158311	      2.13243085	     -0.64340223	      1.08056418	     -0.31225866	     -2.25316759	      7.28316655	     -1.50774044	    -12.38317695	     11.81531032	     -4.31558742	     20.25989586	     -4.80650143	      1.04372806	    -52.17819962	      6.46028771	      1.36400515	     -8.28757400	      0.48932398	     -0.83069628
      3.11000000	      3.00715199	     -3.05244414	      1.93459572	     -0.63499606	      1.08017452	     -0.31210532	     -2.72642768	      7.14715061	     -1.31860292	    -12.37411194	     12.16901627	     -4.35273917	     20.63422531	     -4.77855566	      0.58016251	    -50.30107456	      6.89240932	      1.45238021	     -8.27564654	      0.32311714	     -0.60582288
